<svg xmlns="http://www.w3.org/2000/svg" xmlns:xlink="http://www.w3.org/1999/xlink" xmlns:serif="http://www.serif.com/" width="100%" height="100%" viewBox="0 0 228 68" xml:space="preserve" style="fill-rule:evenodd;clip-rule:evenodd;stroke-linejoin:round;stroke-miterlimit:2;">    <g transform="matrix(1,0,0,1,-0.0519336,0.95)">        <g>            <g>                <path d="M32.8,42.3C29.9,45.4 25.4,45.9 21,46L20.4,46C19.2,46 18,45.8 16.9,45.6C10.1,44.5 8,44.2 6.7,45.6L5.9,45L5.9,31.6L6.9,31.6C7.5,35.5 8.3,42.7 16.9,44.5C17.4,44.6 17.9,44.7 18.5,44.8C19.2,44.9 19.8,44.9 20.5,44.9L20.9,44.9C23.2,44.9 26.6,44.7 27.8,43.3C29,42 29.1,40.5 28.7,38.6C28.1,35.5 23.6,32.1 19.2,30.1C16.4,28.9 13.6,27.7 11.2,26C8,23.7 6.2,19.2 6.9,15.5C7.8,10.8 12.2,6.5 19.2,6.5L19.6,6.5C21.4,6.5 23.1,6.8 24.8,7.3L24.9,7.3C25.1,7.4 25.3,7.5 25.5,7.5C32.2,10.5 33.3,9.3 33.9,7L34.8,7.4L34.8,20.6L33.8,20.6C33.1,15.5 32.7,11.6 25.5,8.5C25.2,8.4 24.9,8.3 24.6,8.1C23.5,7.8 22.4,7.6 21.3,7.5C18.7,7.2 14.9,7.8 13.6,10C13.4,10.4 13.2,10.8 13.1,11.3C11.8,15.2 12.3,17.2 15.1,19.8C17,21.5 20.5,23.3 23.5,24.7C28.9,27.1 34.3,30.7 35.2,34.7C35.7,37.9 34.4,40.5 32.8,42.3Z" style="fill:white;fill-rule:nonzero;"></path>                <path d="M68.6,38C68.6,38.1 67.1,45.5 62,45.5C58.7,45.6 55.7,43.3 55,40.1C53.5,42.6 50.6,45.3 45.3,45.7L44.3,45.7C40.9,45.7 38.5,43.4 38.5,39.6C38.5,35.9 41,32.1 46.1,30.8C50.3,29.7 53.5,29 54.8,28.3L54.8,23.2C54.8,20.8 54.1,18 51.3,17.8C48.8,17.6 46.3,18.3 45.3,20.4C44.6,21.9 45.1,23.7 45.9,25.2C46.5,26.2 46.5,27.5 45.7,28.5C45,29.5 44.3,29.8 43,29.8L42.5,29.8C41.2,29.6 40.1,28.6 39.7,27.3C39.1,25.3 40,23.1 40.9,21.9C43.1,18.9 45.9,16.9 51.3,16.9C58.1,16.9 61.6,21.6 61.8,25.7L61.8,38C61.8,43.1 65.8,43.4 67.4,38L68.6,38ZM54.9,29.5C53.7,30 52.6,30.5 51.3,30.8C51.1,30.9 45.3,32.9 45.6,38.4C45.7,40.8 46.6,42.6 49,43C50.7,43.2 53.1,42 54.9,38.3L54.9,29.5Z" style="fill:white;fill-rule:nonzero;"></path>                <path d="M100.6,38C100.6,38.1 99.1,45.5 94,45.5C90.7,45.6 87.7,43.3 87,40.1C85.5,42.6 82.6,45.3 77.3,45.7L76.3,45.7C72.9,45.7 70.5,43.4 70.5,39.6C70.5,35.9 73,32.1 78.1,30.8C82.3,29.7 85.5,29 86.8,28.3L86.8,23.2C86.8,20.8 86.1,18 83.3,17.8C80.8,17.6 78.3,18.3 77.3,20.4C76.6,21.9 77.1,23.7 77.9,25.2C78.5,26.2 78.5,27.5 77.7,28.5C77,29.5 76.3,29.8 75,29.8L74.5,29.8C73.2,29.6 72.1,28.6 71.7,27.3C71.1,25.3 72,23.1 72.9,21.9C75.1,18.9 77.9,16.9 83.3,16.9C90.1,16.9 93.6,21.6 93.8,25.7L93.8,38C93.8,43.1 97.8,43.4 99.4,38L100.6,38ZM86.9,29.5C85.7,30 84.6,30.5 83.3,30.8C83.1,30.9 77.3,32.9 77.6,38.4C77.7,40.8 78.6,42.6 81,43C82.7,43.2 85.1,42 86.9,38.3L86.9,29.5Z" style="fill:white;fill-rule:nonzero;"></path>                <path d="M124.2,30C123.3,31.1 122,31.7 120.6,31.7C119,31.8 117.4,30.4 117.2,29C117,27.6 117.7,26.2 118.8,25.3C120.4,23.9 120.7,22.5 120.6,21.3C120.4,18.8 118.6,18.1 116.1,19.3C112.9,21.4 111.2,25.5 110.5,27.8L110.5,45.6L103.5,45.6L103.5,18.4L101.2,18.4L101.2,17.4L111.7,17.4L111.7,18.4L110.4,18.4L110.4,24.8C111.9,21.3 114.8,17.3 120.1,17.3C122.9,17.3 125.1,19.7 125.8,21.9C126.9,25 125.4,28.7 124.2,30Z" style="fill:white;fill-rule:nonzero;"></path>                <path d="M157.9,38C157.9,38.1 156.4,45.5 151.3,45.5C148,45.6 145,43.3 144.3,40.1C142.8,42.6 139.9,45.3 134.6,45.7L133.6,45.7C130.2,45.7 127.8,43.4 127.8,39.6C127.8,35.9 130.3,32.1 135.4,30.8C139.6,29.7 142.8,29 144.1,28.3L144.1,23.2C144.1,20.8 143.4,18 140.6,17.8C138.1,17.6 135.6,18.3 134.6,20.4C133.9,21.9 134.4,23.7 135.2,25.2C135.8,26.2 135.8,27.5 135,28.5C134.3,29.5 133.6,29.8 132.3,29.8L131.8,29.8C130.5,29.6 129.4,28.6 129,27.3C128.4,25.3 129.3,23.1 130.2,21.9C132.4,18.9 135.2,16.9 140.6,16.9C147.4,16.9 150.9,21.6 151.1,25.7L151.1,38C151.1,43.1 155.1,43.4 156.7,38L157.9,38ZM144.2,29.5C143,30 141.9,30.5 140.6,30.8C140.4,30.9 134.6,32.9 134.9,38.4C135,40.8 135.9,42.6 138.3,43C140,43.2 142.4,42 144.2,38.3L144.2,29.5Z" style="fill:white;fill-rule:nonzero;"></path>                <path d="M190.6,38.1C190.6,38.2 190.8,45.1 183.6,45.5C177.7,45.8 176.9,42 176.9,38.7L176.9,29.2C176.9,24.5 175.9,21.1 174.1,20.4C172.6,19.9 170,20.8 167.6,23.6L167.6,45.5L160.8,45.5L160.8,18.3L158.4,18.3L158.4,17.3L168.7,17.3L168.7,18.3L167.7,18.3L167.7,21.8C170.7,18.7 173.6,17.1 177.3,17.1C180.5,17.1 183.9,21.2 183.9,27.8L183.9,38.1C183.9,43.2 187.9,43.6 189.6,38.1L190.6,38.1Z" style="fill:white;fill-rule:nonzero;"></path>                <path d="M213.8,17.8C213.6,18.1 213.4,18.4 213.4,18.8C216.7,20.4 219.8,24.4 219.8,28.3C219.8,34.3 214.3,39.3 205.8,39.3C202.7,39.3 199.7,38.5 197,37.1C196.7,37.6 196.7,38.1 196.9,38.6C197.3,39.4 199.1,40.9 205.6,40.9C216.8,40.9 220.9,43.9 220.9,49.1C221,51.5 220,53.8 218.3,55.5C215.9,57.8 212.1,59.1 206.4,59.1L205.3,59.1C198.7,59.1 192.7,56.8 191.3,52.5C190.8,51 191.1,49.3 192.3,48.2C193,47.5 194.4,47 195.5,47.3C196.3,47.6 197.5,48.3 197.9,51.1C198.6,55.8 201.1,57.9 205.3,58C208.3,58 210.9,57.5 212.5,56.4C213.7,55.8 214.4,54.5 214.3,53.2C214.3,50.2 211.4,47.8 207.5,47.8C198.1,47.8 193.2,46.3 193.2,41.2C193.2,39.2 194.3,37.4 196,36.4C193.5,34.4 192,31.4 191.8,28.2C191.8,23.1 198,17.2 205.9,17.2C208.1,17.3 210.2,17.6 212.3,18.2C212.2,16.1 212.8,11.8 216.2,10.1C217.7,9.4 219.8,9.3 220.8,10.5C221.5,11.4 221.7,12.5 221.3,13.5C221,14.5 219.9,15.4 218.4,15.6C216.3,16 214.8,16.6 213.8,17.8ZM205.8,38.2C209.6,38.2 213,33.7 213,28.3C213,22.8 209.8,18.4 205.8,18.4C202,18.4 198.7,22.9 198.7,28.3C198.6,33.7 201.9,38.2 205.8,38.2Z" style="fill:white;fill-rule:nonzero;"></path>            </g>        </g>    </g></svg>